<svg width="277" height="247" viewBox="0 0 277 247" fill="none" xmlns="http://www.w3.org/2000/svg">
<g clip-path="url(#clip0_232_165)">
<mask id="mask0_232_165" style="mask-type:luminance" maskUnits="userSpaceOnUse" x="0" y="0" width="277" height="247">
<path d="M277 0H0V247H277V0Z" fill="white"/>
</mask>
<g mask="url(#mask0_232_165)">
<path d="M102.028 25.4941C121.654 -8.49816 153.524 -8.49816 173.15 25.4941C173.15 25.4941 207.266 84.5814 219.966 106.58C232.666 128.578 266.778 187.668 266.778 187.668C286.402 221.661 270.467 249.262 231.217 249.263C231.217 249.263 162.989 249.266 137.589 249.266C112.188 249.266 43.9609 249.263 43.9609 249.263C4.71077 249.262 -11.224 221.661 8.40013 187.668C8.40013 187.668 42.5116 128.578 55.2119 106.58C67.9122 84.5814 102.028 25.4941 102.028 25.4941Z" fill="#695455"/>
<path d="M102.028 25.4941C121.654 -8.49816 153.524 -8.49816 173.15 25.4941C173.15 25.4941 207.266 84.5814 219.966 106.58C232.666 128.578 266.778 187.668 266.778 187.668C286.402 221.661 270.467 249.262 231.217 249.263C231.217 249.263 162.989 249.266 137.589 249.266C112.188 249.266 43.961 249.263 43.961 249.263C4.71077 249.262 -11.224 221.661 8.40013 187.668C8.40013 187.668 42.5116 128.578 55.2119 106.58C67.9122 84.5814 102.028 25.4941 102.028 25.4941Z" stroke="#695455" stroke-width="5"/>
<path d="M137.471 217.361C141.834 217.361 145.448 215.897 148.312 212.962C151.176 210.031 152.608 206.386 152.608 202.019C152.608 197.656 151.176 194.011 148.312 191.076C145.448 188.145 141.834 186.678 137.471 186.678C133.104 186.678 129.493 188.145 126.629 191.076C123.766 194.011 122.334 197.656 122.334 202.019C122.334 206.386 123.766 210.031 126.629 212.962C129.493 215.897 133.104 217.361 137.471 217.361ZM137.471 174.404C139.516 174.404 141.256 173.723 142.688 172.358C144.12 170.998 144.968 169.018 145.244 166.426L152.812 87.0573L153.017 84.8072C153.017 80.5826 151.549 77.2065 148.618 74.6806C145.683 72.1583 141.971 70.8972 137.471 70.8972C132.971 70.8972 129.255 72.1583 126.324 74.6806C123.389 77.2065 121.925 80.5826 121.925 84.8072L122.129 86.8528L129.698 166.426C129.97 169.018 130.822 170.998 132.254 172.358C133.686 173.723 135.425 174.404 137.471 174.404Z" fill="white"/>
</g>
</g>
<defs>
<clipPath id="clip0_232_165">
<rect width="277" height="247" fill="white"/>
</clipPath>
</defs>
</svg>
