<?xml version="1.0" encoding="UTF-8" standalone="no"?>
<svg
   id="svg"
   width="400"
   height="400"
   viewBox="0, 0, 400,400"
   version="1.1"
   sodipodi:docname="law-icon.svg"
   inkscape:version="1.3.2 (091e20e, 2023-11-25, custom)"
   xmlns:inkscape="http://www.inkscape.org/namespaces/inkscape"
   xmlns:sodipodi="http://sodipodi.sourceforge.net/DTD/sodipodi-0.dtd"
   xmlns="http://www.w3.org/2000/svg"
   xmlns:svg="http://www.w3.org/2000/svg">
  <defs
     id="defs1" />
  <sodipodi:namedview
     id="namedview1"
     pagecolor="#505050"
     bordercolor="#ffffff"
     borderopacity="1"
     inkscape:showpageshadow="0"
     inkscape:pageopacity="0"
     inkscape:pagecheckerboard="1"
     inkscape:deskcolor="#505050"
     inkscape:zoom="1.4142136"
     inkscape:cx="285.67114"
     inkscape:cy="240.06275"
     inkscape:window-width="1920"
     inkscape:window-height="991"
     inkscape:window-x="-9"
     inkscape:window-y="-9"
     inkscape:window-maximized="1"
     inkscape:current-layer="svgg" />
  <g
     id="svgg">
    <path
       id="path0"
       d="m 38.568094,290.83933 c -12.538965,24.76197 5.199084,64.81229 35.269949,79.62459 47.253897,23.27938 103.632797,-7.07744 106.870047,-57.54443 l 0.80421,-12.53401 -24.10607,-48.22044 -24.10608,-48.22044 h 61.94952 c 34.07381,0 61.95178,0.40352 61.95178,0.89772 0,0.49419 -10.84899,22.60156 -24.11061,49.12495 l -24.10835,48.22724 1.06474,11.53428 c 7.86998,85.23078 140.38659,84.76378 145.85752,-0.51233 l 0.82233,-12.82644 -32.06895,-64.16169 -32.06893,-64.16168 h -40.70238 -40.70009 v -15.09793 c -0.002,-14.13674 0.25825,-15.19768 4.07997,-16.65079 11.73929,-4.46818 24.18084,-22.50408 24.21935,-35.11063 l 0.0182,-5.755801 H 224.4937 c -14.57104,0 -15.04224,0.13147 -16.13189,4.470431 -4.11169,16.39236 -26.86533,10.47788 -25.70319,-6.682991 0.44856,-6.642181 6.67839,-10.183167 17.90796,-10.183167 h 10.62018 V 57.866435 l -0.002,-29.189336 -32.59671,-0.723047 m 0.0204,0.06619 0.62333,29.811638 -8.314,5.313748 c -27.51097,17.58025 -25.68733,61.257712 3.18515,76.196962 5.1651,2.67274 5.22626,2.8813 5.22626,17.714 v 15.00953 h -40.69824 l -36.79933,-0.002 m 22.44352,84.56883 16.13641,32.32227 H 107.66493 74.920902 l 16.299522,-32.68073 c 8.966436,-17.9747 16.439986,-32.5195 16.609876,-32.32227 0.16765,0.19723 7.56869,14.90297 16.44451,32.68045 m 175.39374,-1.34658 c 8.76482,17.52358 15.93706,32.26788 15.93706,32.76434 0,0.49873 -14.7296,0.90451 -32.73497,0.90451 h -32.73723 l 16.34256,-32.76433 c 8.98909,-18.02003 16.54872,-32.76433 16.80018,-32.76433 0.2492,0 7.62533,14.33624 16.3924,31.85981 m -155.19547,71.06004 c -13.28654,22.90759 -46.456468,27.8881 -65.750843,9.87486 -3.762823,-3.51152 -9.122749,-11.98313 -9.122749,-14.4133 0,-0.53501 17.56588,-0.97253 39.035032,-0.97253 h 39.0373 l -3.19874,5.51097 m 175.69278,-0.46246 c -9.87259,19.10591 -35.58031,26.88157 -55.69929,16.85029 -8.35704,-4.16893 -19.65458,-15.89136 -19.65458,-20.39355 0,-0.8297 17.54323,-1.50525 38.98293,-1.50525 h 38.98068 l -2.60974,5.04851"
       stroke="none"
       fill="#000000"
       fill-rule="evenodd"
       inkscape:transform-center-x="324.21109"
       inkscape:transform-center-y="46.681223"
       sodipodi:nodetypes="ccccccsscccccccccccccsccsccccccccscccccccccccssccscccssccccsscc"
       style="stroke-width:2.26618" />
  </g>
</svg>
