<svg width="26" height="27" viewBox="0 0 26 27" fill="none" xmlns="http://www.w3.org/2000/svg">
<path fill-rule="evenodd" clip-rule="evenodd" d="M4.225 11.4512V8.77901C4.225 3.9305 8.1537 0 13 0C17.8463 0 21.775 3.9305 21.775 8.77901V11.4512C23.2242 11.5596 24.1679 11.8328 24.8577 12.523C26 13.6659 26 15.5052 26 19.1838C26 22.8624 26 24.7017 24.8577 25.8445C23.7154 26.9873 21.8769 26.9873 18.2 26.9873H7.8C4.12304 26.9873 2.28457 26.9873 1.14228 25.8445C0 24.7017 0 22.8624 0 19.1838C0 15.5052 0 13.6659 1.14228 12.523C1.8321 11.8328 2.77583 11.5596 4.225 11.4512ZM7.8 8.77901C7.8 5.00795 9.23066 3 13 3C16.7694 3 18.2 5.00795 18.2 8.77901V11.3802C17.7021 11.3755 18.7869 11.3802 18.2 11.3802H7.8C7.21304 11.3802 8.29791 11.3755 7.8 11.3802V8.77901ZM13 15.6071C13.5385 15.6071 16 16.0439 16 16.5826V21.785C16 22.3237 13.5385 22.7604 13 22.7604C12.4615 22.7604 10 22.3237 10 21.785V16.5826C10 16.0439 12.4615 15.6071 13 15.6071Z" fill="#FCD6DD"/>
</svg>
