<svg id="svg" xmlns="http://www.w3.org/2000/svg" xmlns:xlink="http://www.w3.org/1999/xlink" width="400" height="400" viewBox="0, 0, 400,400"><g id="svgg"><path id="path0" d="M32.202 1.299 C 30.792 1.994,28.858 3.656,27.905 4.992 L 26.172 7.422 25.966 87.305 L 25.760 167.188 18.123 167.188 C 3.103 167.187,-0.000 170.598,-0.000 187.109 C -0.000 203.624,3.102 207.031,18.134 207.031 L 25.781 207.031 25.781 241.291 L 25.781 275.550 27.545 278.205 C 30.677 282.918,34.883 284.375,45.355 284.375 C 60.801 284.375,64.844 280.646,64.844 266.399 L 64.844 258.826 71.337 258.368 C 80.597 257.714,81.742 257.368,121.361 243.240 C 141.059 236.216,157.438 230.469,157.757 230.469 C 158.737 230.469,166.643 251.357,166.237 252.874 C 166.028 253.657,154.151 286.465,139.844 325.781 C 125.536 365.098,113.666 397.881,113.465 398.633 C 113.118 399.929,117.614 400.000,199.909 400.000 C 247.654 400.000,286.719 399.732,286.719 399.404 C 286.719 399.076,274.766 365.946,260.156 325.781 C 245.547 285.617,233.594 252.315,233.594 251.777 C 233.594 251.240,236.012 244.731,238.969 237.314 C 241.925 229.897,244.578 222.737,244.865 221.404 C 245.366 219.075,245.638 218.929,251.795 217.696 C 255.319 216.990,259.025 216.186,260.029 215.910 L 261.856 215.407 259.740 219.581 C 254.205 230.504,262.035 248.171,275.309 254.705 C 296.168 264.974,321.055 251.583,322.484 229.321 L 322.839 223.792 312.198 202.521 L 301.557 181.250 328.903 181.250 C 343.944 181.250,356.250 181.428,356.250 181.646 C 356.250 181.864,351.461 191.616,345.607 203.316 L 334.965 224.590 335.435 229.678 C 338.909 267.275,397.405 267.069,399.820 229.452 L 400.183 223.794 386.027 195.491 L 371.871 167.188 353.904 167.188 L 335.938 167.188 335.938 160.528 C 335.937 154.292,336.052 153.824,337.739 153.183 C 342.921 151.212,348.413 143.256,348.430 137.695 L 348.438 135.156 341.812 135.156 C 335.380 135.156,335.172 135.214,334.691 137.128 C 332.876 144.359,322.832 141.750,323.345 134.180 C 323.543 131.250,326.293 129.688,331.250 129.688 L 335.938 129.688 335.938 116.812 L 335.937 103.936 338.086 103.424 C 339.268 103.143,341.141 102.393,342.249 101.758 C 344.056 100.721,344.537 100.744,346.924 101.979 C 355.473 106.400,368.116 101.745,372.370 92.610 C 374.627 87.762,375.221 55.475,373.145 50.504 C 369.989 42.951,363.331 38.717,354.569 38.690 L 348.591 38.672 348.203 35.779 C 347.159 27.995,342.842 25.781,328.708 25.781 C 312.674 25.781,309.928 28.191,309.503 42.632 L 309.241 51.563 303.644 51.580 C 296.775 51.601,292.914 53.204,288.832 57.731 C 284.051 63.034,284.074 62.883,283.545 92.188 C 283.002 122.257,282.777 123.806,277.369 134.766 C 267.584 154.591,247.652 167.164,225.977 167.182 L 219.531 167.188 219.531 163.718 C 219.531 160.267,219.558 160.234,224.318 157.697 C 237.093 150.888,245.313 136.952,245.313 122.101 L 245.313 116.406 250.105 116.406 C 259.098 116.406,265.971 112.433,269.466 105.213 C 271.609 100.786,271.929 67.661,269.905 59.734 C 265.564 42.729,251.934 29.917,234.254 26.222 C 232.629 25.883,231.914 25.005,230.944 22.160 C 220.851 -7.463,179.149 -7.463,169.056 22.160 C 168.086 25.005,167.371 25.883,165.746 26.222 C 148.066 29.917,134.436 42.729,130.095 59.734 C 128.071 67.661,128.391 100.786,130.534 105.213 C 134.029 112.433,140.902 116.406,149.895 116.406 L 154.688 116.406 154.688 122.101 C 154.688 136.952,162.907 150.888,175.682 157.697 C 180.404 160.213,180.469 160.293,180.469 163.602 L 180.469 166.955 171.680 167.409 C 152.880 168.381,147.477 170.531,115.109 189.919 C 92.349 203.552,91.325 204.075,89.899 202.784 C 88.541 201.556,88.508 201.210,89.519 198.792 C 91.448 194.175,91.038 177.901,88.897 174.091 C 86.010 168.955,82.980 167.640,73.253 167.305 L 64.865 167.015 64.659 87.471 C 64.427 -2.118,65.009 6.119,58.602 1.758 C 55.224 -0.541,36.593 -0.865,32.202 1.299 M51.563 90.234 L 51.563 167.188 45.313 167.188 L 39.063 167.188 39.063 90.234 L 39.063 13.281 45.313 13.281 L 51.563 13.281 51.563 90.234 M207.881 15.238 C 212.161 17.400,217.188 22.863,217.188 25.352 C 217.188 25.588,209.453 25.781,200.000 25.781 C 190.547 25.781,182.813 25.588,182.813 25.352 C 182.813 17.273,198.989 10.746,207.881 15.238 M233.320 40.152 C 248.090 44.085,257.808 57.124,257.814 73.016 L 257.816 77.734 251.655 77.482 L 245.494 77.230 244.989 73.967 C 242.282 56.482,222.761 46.763,205.268 54.189 L 200.000 56.426 194.732 54.189 C 177.202 46.747,157.724 56.445,155.011 73.967 L 154.506 77.230 148.345 77.482 L 142.184 77.734 142.186 73.016 C 142.192 57.205,151.739 44.262,166.406 40.180 C 171.673 38.715,227.833 38.691,233.320 40.152 M335.156 64.453 L 335.156 89.844 328.906 89.844 L 322.656 89.844 322.656 64.453 L 322.656 39.063 328.906 39.063 L 335.156 39.063 335.156 64.453 M359.318 54.402 C 362.029 57.848,361.786 85.160,359.020 87.926 C 356.473 90.473,353.172 90.434,350.722 87.830 C 348.755 85.738,347.448 65.285,348.816 57.995 C 349.873 52.358,356.049 50.246,359.318 54.402 M192.383 68.493 L 200.000 72.145 207.617 68.493 C 218.780 63.141,225.823 64.491,230.152 72.813 C 232.636 77.586,234.248 77.344,200.000 77.344 C 165.752 77.344,167.364 77.586,169.848 72.813 C 174.174 64.498,181.229 63.146,192.383 68.493 M309.375 78.931 C 309.375 96.673,311.050 100.958,318.750 102.916 L 321.484 103.611 321.658 110.204 L 321.832 116.797 318.162 119.141 C 306.018 126.896,306.823 146.163,319.568 152.753 C 321.848 153.932,321.875 154.024,321.875 160.567 L 321.875 167.188 303.910 167.188 L 285.945 167.187 278.525 182.013 C 271.793 195.462,270.832 196.974,268.169 198.311 C 263.864 200.473,255.847 202.982,249.204 204.248 L 243.374 205.359 239.694 201.229 C 237.339 198.587,234.578 196.482,232.029 195.386 C 229.020 194.092,228.142 193.347,228.441 192.344 C 228.660 191.613,229.413 188.684,230.116 185.835 L 231.393 180.654 236.138 180.118 C 258.520 177.585,280.992 160.824,290.695 139.425 C 296.030 127.657,296.312 125.648,296.811 95.829 L 297.266 68.612 299.458 66.728 C 301.135 65.286,302.557 64.844,305.512 64.844 L 309.375 64.844 309.375 78.931 M154.688 96.972 L 154.688 103.318 150.258 102.951 C 139.445 102.054,139.875 90.625,150.721 90.625 L 154.688 90.625 154.688 96.972 M232.031 96.875 L 232.031 103.125 200.000 103.125 L 167.969 103.125 167.969 96.875 L 167.969 90.625 200.000 90.625 L 232.031 90.625 232.031 96.875 M255.529 92.909 C 260.009 97.389,257.158 102.336,249.742 102.951 L 245.313 103.318 245.313 96.972 L 245.313 90.625 249.279 90.625 C 252.621 90.625,253.605 90.984,255.529 92.909 M231.814 122.258 C 230.821 135.396,222.529 145.305,209.861 148.495 L 206.250 149.404 206.250 165.327 L 206.250 181.250 211.656 181.250 L 217.062 181.250 216.393 183.789 C 216.026 185.186,215.337 187.822,214.864 189.648 L 214.002 192.969 200.000 192.969 L 185.998 192.969 185.136 189.648 C 184.663 187.822,183.974 185.186,183.607 183.789 L 182.938 181.250 188.344 181.250 L 193.750 181.250 193.750 165.327 L 193.750 149.404 190.139 148.495 C 177.471 145.305,169.179 135.396,168.186 122.258 L 167.743 116.406 200.000 116.406 L 232.257 116.406 231.814 122.258 M77.344 187.109 L 77.344 192.969 45.313 192.969 L 13.281 192.969 13.281 187.109 L 13.281 181.250 45.313 181.250 L 77.344 181.250 77.344 187.109 M170.444 187.109 C 171.211 190.117,171.847 192.825,171.857 193.128 C 171.867 193.430,170.205 194.414,168.164 195.314 C 160.869 198.534,155.691 205.368,154.919 212.795 L 154.504 216.797 116.266 230.416 C 80.578 243.127,77.589 244.058,71.436 244.381 L 64.844 244.727 64.844 225.879 L 64.844 207.031 69.743 207.031 L 74.642 207.031 81.657 214.094 C 86.051 218.518,89.139 221.038,89.921 220.839 C 90.608 220.664,103.792 212.972,119.218 203.747 C 148.257 186.381,152.391 184.269,160.938 182.436 C 168.730 180.764,168.838 180.817,170.444 187.109 M297.573 204.492 L 304.696 218.750 290.241 218.750 L 275.787 218.750 282.982 204.334 C 286.940 196.405,290.239 189.989,290.314 190.076 C 290.388 190.163,293.655 196.650,297.573 204.492 M374.996 203.898 C 378.865 211.628,382.031 218.132,382.031 218.351 C 382.031 218.571,375.529 218.750,367.581 218.750 L 353.130 218.750 360.344 204.297 C 364.312 196.348,367.649 189.844,367.760 189.844 C 367.870 189.844,371.126 196.168,374.996 203.898 M51.563 238.672 L 51.563 270.313 45.313 270.313 L 39.063 270.313 39.063 238.672 L 39.063 207.031 45.313 207.031 L 51.563 207.031 51.563 238.672 M228.051 209.042 C 233.002 213.208,232.885 215.249,226.821 230.548 L 221.432 244.141 200.058 244.141 L 178.683 244.141 173.241 230.535 C 167.117 215.225,166.996 213.210,171.949 209.042 L 174.339 207.031 200.000 207.031 L 225.661 207.031 228.051 209.042 M306.489 235.244 C 300.624 245.349,285.982 247.546,277.465 239.600 C 275.804 238.051,273.438 234.314,273.438 233.242 C 273.438 233.006,281.192 232.813,290.669 232.813 L 307.901 232.813 306.489 235.244 M384.044 235.040 C 379.686 243.468,368.338 246.898,359.457 242.473 C 355.768 240.634,350.781 235.463,350.781 233.477 C 350.781 233.111,358.525 232.813,367.989 232.813 L 385.196 232.813 384.044 235.040 M221.509 260.235 C 221.796 261.138,221.732 262.169,221.367 262.526 C 220.171 263.697,167.038 293.861,166.724 293.547 C 166.556 293.379,169.228 285.553,172.662 276.155 C 176.096 266.758,178.906 258.963,178.906 258.832 C 178.906 257.395,221.049 258.783,221.509 260.235 M227.344 276.032 C 227.344 276.170,229.241 281.456,231.560 287.778 L 235.777 299.274 230.584 296.429 C 216.659 288.801,210.939 285.510,210.938 285.128 C 210.937 284.657,225.846 275.888,226.758 275.823 C 227.080 275.800,227.344 275.894,227.344 276.032 M219.819 306.356 C 232.336 313.289,242.699 319.064,242.846 319.190 C 243.209 319.497,267.153 385.390,267.172 386.133 C 267.181 386.455,236.953 386.719,200.000 386.719 C 163.047 386.719,132.813 386.502,132.813 386.237 C 132.813 385.973,138.648 369.713,145.780 350.105 L 158.748 314.453 176.835 304.127 C 186.783 298.447,195.403 293.789,195.991 293.775 C 196.578 293.761,207.301 299.423,219.819 306.356 " stroke="none" fill="#000000" fill-rule="evenodd"></path></g></svg>