<svg width="38" height="27" viewBox="0 0 38 27" fill="none" xmlns="http://www.w3.org/2000/svg">
<path d="M2 3C2 2.44772 2.44772 2 3 2H35C35.5523 2 36 2.44772 36 3V24C36 24.5523 35.5523 25 35 25H3C2.44772 25 2 24.5523 2 24V3Z" fill="none"/>
<path d="M2 2L17.9922 13.5857C18.335 13.8341 18.7971 13.8396 19.1458 13.5996L36 2M3 25H35C35.5523 25 36 24.5523 36 24V3C36 2.44772 35.5523 2 35 2H3C2.44772 2 2 2.44772 2 3V24C2 24.5523 2.44772 25 3 25Z" stroke="#FCD6DD" stroke-width="3" stroke-linecap="round"/>
</svg>
