<svg width="29" height="29" viewBox="0 0 29 29" fill="none" xmlns="http://www.w3.org/2000/svg">
<path d="M2.42362 5.4878C2.30171 3.76073 3.76416 2.41663 5.49197 2.41663H9.19049C10.0774 2.41663 10.8773 2.95102 11.2185 3.77141L12.765 7.49097C13.1418 8.39705 12.8744 9.44362 12.1095 10.0568L11.1454 10.8297C10.7152 11.1746 10.5689 11.7693 10.824 12.2583C12.135 14.7707 14.0726 16.9031 16.4288 18.4472C16.9262 18.7731 17.5831 18.6435 17.9542 18.1787L18.9588 16.9202C19.5707 16.1538 20.6151 15.8859 21.5193 16.2634L25.2312 17.8132C26.0499 18.155 26.5832 18.9567 26.5832 19.8454V23.5625C26.5832 25.2939 25.1922 26.6987 23.4688 26.5762C12.4482 25.7921 3.2049 16.5562 2.42362 5.4878Z" fill="#FCD6DD"/>
</svg>
